<svg width="80" height="18" viewBox="0 0 80 18" fill="none" xmlns="http://www.w3.org/2000/svg">
<path d="M8 -9.53674e-07C9.50667 -9.53674e-07 10.6467 0.393332 11.42 1.18C12.2067 1.95333 12.6 3.09333 12.6 4.6V9.4C12.6 10.9067 12.2067 12.0533 11.42 12.84C10.6467 13.6133 9.50667 14 8 14H0.2V-9.53674e-07H8ZM9 4.6C9 3.4 8.4 2.8 7.2 2.8H3.8V11.2H7.2C8.4 11.2 9 10.6 9 9.4V4.6ZM18.4945 5.7C17.9612 5.7 17.6945 5.96667 17.6945 6.5V7.6H21.0945V6.5C21.0945 5.96667 20.8279 5.7 20.2945 5.7H18.4945ZM24.1945 13.8C21.6212 14.0667 19.2879 14.2 17.1945 14.2C16.2879 14.2 15.5612 13.9267 15.0145 13.38C14.4679 12.8333 14.1945 12.1067 14.1945 11.2V6.4C14.1945 5.4 14.4745 4.62 15.0345 4.06C15.6079 3.48667 16.3945 3.2 17.3945 3.2H21.3945C22.3945 3.2 23.1745 3.48667 23.7345 4.06C24.3079 4.62 24.5945 5.4 24.5945 6.4V10.1H17.6945V10.9C17.6945 11.1 17.7612 11.2667 17.8945 11.4C18.0279 11.5333 18.1945 11.6 18.3945 11.6C19.7145 11.6 21.6479 11.5 24.1945 11.3V13.8ZM29.8867 9.8V14H26.3867V-9.53674e-07H29.8867V7.1H31.4867L33.6867 3.4H37.3867L34.3867 8.5L37.3867 14H33.6867L31.3867 9.8H29.8867ZM45.0836 13.2C43.7903 13.4667 42.6569 13.6 41.6836 13.6H40.9836C40.0769 13.6 39.3503 13.3267 38.8036 12.78C38.2569 12.2333 37.9836 11.5067 37.9836 10.6V6.6C37.9836 5.6 38.2636 4.82 38.8236 4.26C39.3969 3.68667 40.1836 3.4 41.1836 3.4H48.5836V14.6C48.5836 15.5067 48.3103 16.2333 47.7636 16.78C47.2169 17.3267 46.4903 17.6 45.5836 17.6C43.4903 17.6 41.1569 17.4667 38.5836 17.2V14.6C41.1303 14.8 43.0636 14.9 44.3836 14.9C44.5836 14.9 44.7503 14.8333 44.8836 14.7C45.0169 14.5667 45.0836 14.4 45.0836 14.2V13.2ZM42.6836 10.9C43.5236 10.9 44.3236 10.8333 45.0836 10.7V6.1H42.2836C41.7503 6.1 41.4836 6.36667 41.4836 6.9V10.2C41.4836 10.4 41.5503 10.5667 41.6836 10.7C41.8169 10.8333 41.9836 10.9 42.1836 10.9H42.6836ZM55.4859 11.3C56.1926 11.3 56.9926 11.1667 57.8859 10.9V3.4H61.3859V14H58.2859L58.0859 13C57.4593 13.4133 56.8126 13.72 56.1459 13.92C55.4926 14.1067 54.9393 14.2 54.4859 14.2H53.5859C52.6793 14.2 51.9526 13.9267 51.4059 13.38C50.8593 12.8333 50.5859 12.1067 50.5859 11.2V3.4H54.0859V10.6C54.0859 10.8 54.1526 10.9667 54.2859 11.1C54.4193 11.2333 54.5859 11.3 54.7859 11.3H55.4859ZM66.8789 3.6C68.1722 3.33333 69.3056 3.2 70.2789 3.2H71.1789C72.0856 3.2 72.8122 3.47333 73.3589 4.02C73.9056 4.56667 74.1789 5.29333 74.1789 6.2V14H70.6789V6.6C70.6789 6.4 70.6122 6.23333 70.4789 6.1C70.3456 5.96667 70.1789 5.9 69.9789 5.9H69.2789C68.7722 5.9 68.3056 5.92667 67.8789 5.98C67.4656 6.03333 67.1322 6.07333 66.8789 6.1V14H63.3789V-9.53674e-07H66.8789V3.6ZM75.5766 11H79.1766V14H75.5766V11Z" fill="url(#paint0_linear_1516_14)"/>
<defs>
<linearGradient id="paint0_linear_1516_14" x1="-1" y1="8" x2="80" y2="8" gradientUnits="userSpaceOnUse">
<stop stop-color="#F43F5E"/>
<stop offset="0.29" stop-color="#FBBF24"/>
<stop offset="0.505" stop-color="#60A5FA"/>
<stop offset="0.735" stop-color="#818CF8"/>
<stop offset="1" stop-color="#8B5CF6"/>
</linearGradient>
</defs>
</svg>
