<svg width="284" height="92" viewBox="0 0 284 92" fill="none" xmlns="http://www.w3.org/2000/svg">
<circle cx="148" cy="52" r="4" fill="#93C5FD"/>
<circle cx="160" cy="52" r="4" fill="#93C5FD"/>
<circle cx="172" cy="52" r="4" fill="#93C5FD"/>
<circle cx="184" cy="52" r="4" fill="#93C5FD"/>
<circle cx="196" cy="52" r="4" fill="#93C5FD"/>
<circle cx="208" cy="52" r="4" fill="#93C5FD"/>
<circle cx="220" cy="52" r="4" fill="#93C5FD"/>
<circle cx="232" cy="52" r="4" fill="#93C5FD"/>
<circle cx="244" cy="52" r="4" fill="#93C5FD"/>
<circle cx="256" cy="52" r="4" fill="#93C5FD"/>
<circle cx="268" cy="52" r="4" fill="#93C5FD"/>
<circle cx="280" cy="52" r="4" fill="#93C5FD"/>
<circle cx="148" cy="64" r="4" fill="#93C5FD"/>
<circle cx="160" cy="64" r="4" fill="#93C5FD"/>
<circle cx="172" cy="64" r="4" fill="#93C5FD"/>
<circle cx="184" cy="64" r="4" fill="#93C5FD"/>
<circle cx="196" cy="64" r="4" fill="#93C5FD"/>
<circle cx="208" cy="64" r="4" fill="#93C5FD"/>
<circle cx="220" cy="64" r="4" fill="#93C5FD"/>
<circle cx="232" cy="64" r="4" fill="#93C5FD"/>
<circle cx="244" cy="64" r="4" fill="#93C5FD"/>
<circle cx="256" cy="64" r="4" fill="#93C5FD"/>
<circle cx="268" cy="64" r="4" fill="#93C5FD"/>
<circle cx="280" cy="64" r="4" fill="#93C5FD"/>
<circle cx="148" cy="76" r="4" fill="#93C5FD"/>
<circle cx="160" cy="76" r="4" fill="#93C5FD"/>
<circle cx="172" cy="76" r="4" fill="#93C5FD"/>
<circle cx="184" cy="76" r="4" fill="#93C5FD"/>
<circle cx="196" cy="76" r="4" fill="#93C5FD"/>
<circle cx="208" cy="76" r="4" fill="#93C5FD"/>
<circle cx="220" cy="76" r="4" fill="#93C5FD"/>
<circle cx="232" cy="76" r="4" fill="#93C5FD"/>
<circle cx="244" cy="76" r="4" fill="#93C5FD"/>
<circle cx="256" cy="76" r="4" fill="#93C5FD"/>
<circle cx="268" cy="76" r="4" fill="#93C5FD"/>
<circle cx="280" cy="76" r="4" fill="#93C5FD"/>
<circle cx="148" cy="88" r="4" fill="#93C5FD"/>
<circle cx="160" cy="88" r="4" fill="#93C5FD"/>
<circle cx="172" cy="88" r="4" fill="#93C5FD"/>
<circle cx="184" cy="88" r="4" fill="#93C5FD"/>
<circle cx="196" cy="88" r="4" fill="#93C5FD"/>
<circle cx="208" cy="88" r="4" fill="#93C5FD"/>
<circle cx="220" cy="88" r="4" fill="#93C5FD"/>
<circle cx="232" cy="88" r="4" fill="#93C5FD"/>
<circle cx="244" cy="88" r="4" fill="#93C5FD"/>
<circle cx="256" cy="88" r="4" fill="#93C5FD"/>
<circle cx="268" cy="88" r="4" fill="#93C5FD"/>
<circle cx="280" cy="88" r="4" fill="#93C5FD"/>
<circle cx="148" cy="4" r="4" fill="#93C5FD"/>
<circle cx="160" cy="4" r="4" fill="#93C5FD"/>
<circle cx="172" cy="4" r="4" fill="#93C5FD"/>
<circle cx="184" cy="4" r="4" fill="#93C5FD"/>
<circle cx="196" cy="4" r="4" fill="#93C5FD"/>
<circle cx="208" cy="4" r="4" fill="#93C5FD"/>
<circle cx="220" cy="4" r="4" fill="#93C5FD"/>
<circle cx="232" cy="4" r="4" fill="#93C5FD"/>
<circle cx="244" cy="4" r="4" fill="#93C5FD"/>
<circle cx="256" cy="4" r="4" fill="#93C5FD"/>
<circle cx="268" cy="4" r="4" fill="#93C5FD"/>
<circle cx="280" cy="4" r="4" fill="#93C5FD"/>
<circle cx="148" cy="16" r="4" fill="#93C5FD"/>
<circle cx="160" cy="16" r="4" fill="#93C5FD"/>
<circle cx="172" cy="16" r="4" fill="#93C5FD"/>
<circle cx="184" cy="16" r="4" fill="#93C5FD"/>
<circle cx="196" cy="16" r="4" fill="#93C5FD"/>
<circle cx="208" cy="16" r="4" fill="#93C5FD"/>
<circle cx="220" cy="16" r="4" fill="#93C5FD"/>
<circle cx="232" cy="16" r="4" fill="#93C5FD"/>
<circle cx="244" cy="16" r="4" fill="#93C5FD"/>
<circle cx="256" cy="16" r="4" fill="#93C5FD"/>
<circle cx="268" cy="16" r="4" fill="#93C5FD"/>
<circle cx="280" cy="16" r="4" fill="#93C5FD"/>
<circle cx="148" cy="28" r="4" fill="#93C5FD"/>
<circle cx="160" cy="28" r="4" fill="#93C5FD"/>
<circle cx="172" cy="28" r="4" fill="#93C5FD"/>
<circle cx="184" cy="28" r="4" fill="#93C5FD"/>
<circle cx="196" cy="28" r="4" fill="#93C5FD"/>
<circle cx="208" cy="28" r="4" fill="#93C5FD"/>
<circle cx="220" cy="28" r="4" fill="#93C5FD"/>
<circle cx="232" cy="28" r="4" fill="#93C5FD"/>
<circle cx="244" cy="28" r="4" fill="#93C5FD"/>
<circle cx="256" cy="28" r="4" fill="#93C5FD"/>
<circle cx="268" cy="28" r="4" fill="#93C5FD"/>
<circle cx="280" cy="28" r="4" fill="#93C5FD"/>
<circle cx="148" cy="40" r="4" fill="#93C5FD"/>
<circle cx="160" cy="40" r="4" fill="#93C5FD"/>
<circle cx="172" cy="40" r="4" fill="#93C5FD"/>
<circle cx="184" cy="40" r="4" fill="#93C5FD"/>
<circle cx="196" cy="40" r="4" fill="#93C5FD"/>
<circle cx="208" cy="40" r="4" fill="#93C5FD"/>
<circle cx="220" cy="40" r="4" fill="#93C5FD"/>
<circle cx="232" cy="40" r="4" fill="#93C5FD"/>
<circle cx="244" cy="40" r="4" fill="#93C5FD"/>
<circle cx="256" cy="40" r="4" fill="#93C5FD"/>
<circle cx="268" cy="40" r="4" fill="#93C5FD"/>
<circle cx="280" cy="40" r="4" fill="#93C5FD"/>
<circle cx="4" cy="52" r="4" fill="#93C5FD"/>
<circle cx="16" cy="52" r="4" fill="#93C5FD"/>
<circle cx="28" cy="52" r="4" fill="#93C5FD"/>
<circle cx="40" cy="52" r="4" fill="#93C5FD"/>
<circle cx="52" cy="52" r="4" fill="#93C5FD"/>
<circle cx="64" cy="52" r="4" fill="#93C5FD"/>
<circle cx="76" cy="52" r="4" fill="#93C5FD"/>
<circle cx="88" cy="52" r="4" fill="#93C5FD"/>
<circle cx="100" cy="52" r="4" fill="#93C5FD"/>
<circle cx="112" cy="52" r="4" fill="#93C5FD"/>
<circle cx="124" cy="52" r="4" fill="#93C5FD"/>
<circle cx="136" cy="52" r="4" fill="#93C5FD"/>
<circle cx="4" cy="64" r="4" fill="#93C5FD"/>
<circle cx="16" cy="64" r="4" fill="#93C5FD"/>
<circle cx="28" cy="64" r="4" fill="#93C5FD"/>
<circle cx="40" cy="64" r="4" fill="#93C5FD"/>
<circle cx="52" cy="64" r="4" fill="#93C5FD"/>
<circle cx="64" cy="64" r="4" fill="#93C5FD"/>
<circle cx="76" cy="64" r="4" fill="#93C5FD"/>
<circle cx="88" cy="64" r="4" fill="#93C5FD"/>
<circle cx="100" cy="64" r="4" fill="#93C5FD"/>
<circle cx="112" cy="64" r="4" fill="#93C5FD"/>
<circle cx="124" cy="64" r="4" fill="#93C5FD"/>
<circle cx="136" cy="64" r="4" fill="#93C5FD"/>
<circle cx="4" cy="76" r="4" fill="#93C5FD"/>
<circle cx="16" cy="76" r="4" fill="#93C5FD"/>
<circle cx="28" cy="76" r="4" fill="#93C5FD"/>
<circle cx="40" cy="76" r="4" fill="#93C5FD"/>
<circle cx="52" cy="76" r="4" fill="#93C5FD"/>
<circle cx="64" cy="76" r="4" fill="#93C5FD"/>
<circle cx="76" cy="76" r="4" fill="#93C5FD"/>
<circle cx="88" cy="76" r="4" fill="#93C5FD"/>
<circle cx="100" cy="76" r="4" fill="#93C5FD"/>
<circle cx="112" cy="76" r="4" fill="#93C5FD"/>
<circle cx="124" cy="76" r="4" fill="#93C5FD"/>
<circle cx="136" cy="76" r="4" fill="#93C5FD"/>
<circle cx="4" cy="88" r="4" fill="#93C5FD"/>
<circle cx="16" cy="88" r="4" fill="#93C5FD"/>
<circle cx="28" cy="88" r="4" fill="#93C5FD"/>
<circle cx="40" cy="88" r="4" fill="#93C5FD"/>
<circle cx="52" cy="88" r="4" fill="#93C5FD"/>
<circle cx="64" cy="88" r="4" fill="#93C5FD"/>
<circle cx="76" cy="88" r="4" fill="#93C5FD"/>
<circle cx="88" cy="88" r="4" fill="#93C5FD"/>
<circle cx="100" cy="88" r="4" fill="#93C5FD"/>
<circle cx="112" cy="88" r="4" fill="#93C5FD"/>
<circle cx="124" cy="88" r="4" fill="#93C5FD"/>
<circle cx="136" cy="88" r="4" fill="#93C5FD"/>
<circle cx="4" cy="4" r="4" fill="#93C5FD"/>
<circle cx="16" cy="4" r="4" fill="#93C5FD"/>
<circle cx="28" cy="4" r="4" fill="#93C5FD"/>
<circle cx="40" cy="4" r="4" fill="#93C5FD"/>
<circle cx="52" cy="4" r="4" fill="#93C5FD"/>
<circle cx="64" cy="4" r="4" fill="#93C5FD"/>
<circle cx="76" cy="4" r="4" fill="#93C5FD"/>
<circle cx="88" cy="4" r="4" fill="#93C5FD"/>
<circle cx="100" cy="4" r="4" fill="#93C5FD"/>
<circle cx="112" cy="4" r="4" fill="#93C5FD"/>
<circle cx="124" cy="4" r="4" fill="#93C5FD"/>
<circle cx="136" cy="4" r="4" fill="#93C5FD"/>
<circle cx="4" cy="16" r="4" fill="#93C5FD"/>
<circle cx="16" cy="16" r="4" fill="#93C5FD"/>
<circle cx="28" cy="16" r="4" fill="#93C5FD"/>
<circle cx="40" cy="16" r="4" fill="#93C5FD"/>
<circle cx="52" cy="16" r="4" fill="#93C5FD"/>
<circle cx="64" cy="16" r="4" fill="#93C5FD"/>
<circle cx="76" cy="16" r="4" fill="#93C5FD"/>
<circle cx="88" cy="16" r="4" fill="#93C5FD"/>
<circle cx="100" cy="16" r="4" fill="#93C5FD"/>
<circle cx="112" cy="16" r="4" fill="#93C5FD"/>
<circle cx="124" cy="16" r="4" fill="#93C5FD"/>
<circle cx="136" cy="16" r="4" fill="#93C5FD"/>
<circle cx="4" cy="28" r="4" fill="#93C5FD"/>
<circle cx="16" cy="28" r="4" fill="#93C5FD"/>
<circle cx="28" cy="28" r="4" fill="#93C5FD"/>
<circle cx="40" cy="28" r="4" fill="#93C5FD"/>
<circle cx="52" cy="28" r="4" fill="#93C5FD"/>
<circle cx="64" cy="28" r="4" fill="#93C5FD"/>
<circle cx="76" cy="28" r="4" fill="#93C5FD"/>
<circle cx="88" cy="28" r="4" fill="#93C5FD"/>
<circle cx="100" cy="28" r="4" fill="#93C5FD"/>
<circle cx="112" cy="28" r="4" fill="#93C5FD"/>
<circle cx="124" cy="28" r="4" fill="#93C5FD"/>
<circle cx="136" cy="28" r="4" fill="#93C5FD"/>
<circle cx="4" cy="40" r="4" fill="#93C5FD"/>
<circle cx="16" cy="40" r="4" fill="#93C5FD"/>
<circle cx="28" cy="40" r="4" fill="#93C5FD"/>
<circle cx="40" cy="40" r="4" fill="#93C5FD"/>
<circle cx="52" cy="40" r="4" fill="#93C5FD"/>
<circle cx="64" cy="40" r="4" fill="#93C5FD"/>
<circle cx="76" cy="40" r="4" fill="#93C5FD"/>
<circle cx="88" cy="40" r="4" fill="#93C5FD"/>
<circle cx="100" cy="40" r="4" fill="#93C5FD"/>
<circle cx="112" cy="40" r="4" fill="#93C5FD"/>
<circle cx="124" cy="40" r="4" fill="#93C5FD"/>
<circle cx="136" cy="40" r="4" fill="#93C5FD"/>
</svg>
